M48
INCH,TZ
T10C0.024
T11C0.032
T12C0.040
T13C0.048
%
T10
X017504Y004207
X017104Y004207
X016704Y004207
X016304Y004207
X015904Y004207
X015504Y004207
X015504Y003807
X015904Y003807
X016304Y003807
X016704Y003807
X017104Y003807
X017504Y003807
X017504Y003407
X017104Y003407
X016704Y003407
X016304Y003407
X015904Y003407
X015504Y003407
X015504Y003007
X015904Y003007
X016304Y003007
X016704Y003007
X017104Y003007
X017504Y003007
X017504Y002607
X017104Y002607
X016704Y002607
X016304Y002607
X015904Y002607
X015504Y002607
X015504Y002207
T11
X-02500Y003307
X-02500Y004307
X-01250Y003807
X-02500Y002307
X-01250Y002807
T12
X000000Y000000
X000276Y000000
X000551Y000000
X000827Y000000
X001102Y000000
X001378Y000000
X001654Y000000
X001929Y000000
X002205Y000000
X002480Y000000
X002756Y000000
X003032Y000000
X003307Y000000
X003583Y000000
X003858Y000000
X004134Y000000
X004410Y000000
X004685Y000000
X004961Y000000
X005236Y000000
X005512Y000000
X005788Y000000
X006063Y000000
X006339Y000000
X006614Y000000
X006890Y000000
X007166Y000000
X007441Y000000
X007717Y000000
X007992Y000000
X008268Y000000
X008544Y000000
X008819Y000000
X009095Y000000
X009370Y000000
X009646Y000000
X009922Y000000
X010197Y000000
X010473Y000000
X010748Y000000
X011024Y000000
X011300Y000000
X011575Y000000
X011851Y000000
X012126Y000000
X012402Y000000
X012678Y000000
X012953Y000000
X013229Y000000
X013504Y000000
X000000Y000276
X000276Y000276
X000551Y000276
X000827Y000276
X001102Y000276
X001378Y000276
X001654Y000276
X001929Y000276
X002205Y000276
X002480Y000276
X002756Y000276
X003032Y000276
X003307Y000276
X003583Y000276
X003858Y000276
X004134Y000276
X004410Y000276
X004685Y000276
X004961Y000276
X005236Y000276
X005512Y000276
X005788Y000276
X006063Y000276
X006339Y000276
X006614Y000276
X006890Y000276
X007166Y000276
X007441Y000276
X007717Y000276
X007992Y000276
X008268Y000276
X008544Y000276
X008819Y000276
X009095Y000276
X009370Y000276
X009646Y000276
X009922Y000276
X010197Y000276
X010473Y000276
X010748Y000276
X011024Y000276
X011300Y000276
X011575Y000276
X011851Y000276
X012126Y000276
X012402Y000276
X012678Y000276
X012953Y000276
X013229Y000276
X013504Y000276
X000000Y000551
X000276Y000551
X000551Y000551
X000827Y000551
X001102Y000551
X001378Y000551
X001654Y000551
X001929Y000551
X002205Y000551
X002480Y000551
X002756Y000551
X003032Y000551
X003307Y000551
X003583Y000551
X003858Y000551
X004134Y000551
X004410Y000551
X004685Y000551
X004961Y000551
X005236Y000551
X005512Y000551
X005788Y000551
X006063Y000551
X006339Y000551
X006614Y000551
X006890Y000551
X007166Y000551
X007441Y000551
X007717Y000551
X007992Y000551
X008268Y000551
X008544Y000551
X008819Y000551
X009095Y000551
X009370Y000551
X009646Y000551
X009922Y000551
X010197Y000551
X010473Y000551
X010748Y000551
X011024Y000551
X011300Y000551
X011575Y000551
X011851Y000551
X012126Y000551
X012402Y000551
X012678Y000551
X012953Y000551
X013229Y000551
X013504Y000551
X000000Y000827
X000276Y000827
X000551Y000827
X000827Y000827
X001102Y000827
X001378Y000827
X001654Y000827
X001929Y000827
X002205Y000827
X002480Y000827
X002756Y000827
X003032Y000827
X003307Y000827
X003583Y000827
X003858Y000827
X004134Y000827
X004410Y000827
X004685Y000827
X004961Y000827
X005236Y000827
X005512Y000827
X005788Y000827
X006063Y000827
X006339Y000827
X006614Y000827
X006890Y000827
X007166Y000827
X007441Y000827
X007717Y000827
X007992Y000827
X008268Y000827
X008544Y000827
X008819Y000827
X009095Y000827
X009370Y000827
X009646Y000827
X009922Y000827
X010197Y000827
X010473Y000827
X010748Y000827
X011024Y000827
X011300Y000827
X011575Y000827
X011851Y000827
X012126Y000827
X012402Y000827
X012678Y000827
X012953Y000827
X013229Y000827
X013504Y000827
X000000Y001102
X000276Y001102
X000551Y001102
X000827Y001102
X001102Y001102
X001378Y001102
X001654Y001102
X001929Y001102
X002205Y001102
X002480Y001102
X002756Y001102
X003032Y001102
X003307Y001102
X003583Y001102
X003858Y001102
X004134Y001102
X004410Y001102
X004685Y001102
X004961Y001102
X005236Y001102
X005512Y001102
X005788Y001102
X006063Y001102
X006339Y001102
X006614Y001102
X006890Y001102
X007166Y001102
X007441Y001102
X007717Y001102
X007992Y001102
X008268Y001102
X008544Y001102
X008819Y001102
X009095Y001102
X009370Y001102
X009646Y001102
X009922Y001102
X010197Y001102
X010473Y001102
X010748Y001102
X011024Y001102
X011300Y001102
X011575Y001102
X011851Y001102
X012126Y001102
X012402Y001102
X012678Y001102
X012953Y001102
X013229Y001102
X013504Y001102
X000000Y001378
X000276Y001378
X000551Y001378
X000827Y001378
X001102Y001378
X001378Y001378
X001654Y001378
X001929Y001378
X002205Y001378
X002480Y001378
X002756Y001378
X003032Y001378
X003307Y001378
X003583Y001378
X003858Y001378
X004134Y001378
X004410Y001378
X004685Y001378
X004961Y001378
X005236Y001378
X005512Y001378
X005788Y001378
X006063Y001378
X006339Y001378
X006614Y001378
X006890Y001378
X007166Y001378
X007441Y001378
X007717Y001378
X007992Y001378
X008268Y001378
X008544Y001378
X008819Y001378
X009095Y001378
X009370Y001378
X009646Y001378
X009922Y001378
X010197Y001378
X010473Y001378
X010748Y001378
X011024Y001378
X011300Y001378
X011575Y001378
X011851Y001378
X012126Y001378
X012402Y001378
X012678Y001378
X012953Y001378
X013229Y001378
X013504Y001378
X000000Y001654
X000276Y001654
X000551Y001654
X000827Y001654
X001102Y001654
X001378Y001654
X001654Y001654
X001929Y001654
X002205Y001654
X002480Y001654
X002756Y001654
X003032Y001654
X003307Y001654
X003583Y001654
X003858Y001654
X004134Y001654
X004410Y001654
X004685Y001654
X004961Y001654
X005236Y001654
X005512Y001654
X005788Y001654
X006063Y001654
X006339Y001654
X006614Y001654
X006890Y001654
X007166Y001654
X007441Y001654
X007717Y001654
X007992Y001654
X008268Y001654
X008544Y001654
X008819Y001654
X009095Y001654
X009370Y001654
X009646Y001654
X009922Y001654
X010197Y001654
X010473Y001654
X010748Y001654
X011024Y001654
X011300Y001654
X011575Y001654
X011851Y001654
X012126Y001654
X012402Y001654
X012678Y001654
X012953Y001654
X013229Y001654
X013504Y001654
X000000Y001929
X000276Y001929
X000551Y001929
X000827Y001929
X001102Y001929
X001378Y001929
X001654Y001929
X001929Y001929
X002205Y001929
X002480Y001929
X002756Y001929
X003032Y001929
X003307Y001929
X003583Y001929
X003858Y001929
X004134Y001929
X004410Y001929
X004685Y001929
X004961Y001929
X005236Y001929
X005512Y001929
X005788Y001929
X006063Y001929
X006339Y001929
X006614Y001929
X006890Y001929
X007166Y001929
X007441Y001929
X007717Y001929
X007992Y001929
X008268Y001929
X008544Y001929
X008819Y001929
X009095Y001929
X009370Y001929
X009646Y001929
X009922Y001929
X010197Y001929
X010473Y001929
X010748Y001929
X011024Y001929
X011300Y001929
X011575Y001929
X011851Y001929
X012126Y001929
X012402Y001929
X012678Y001929
X012953Y001929
X013229Y001929
X013504Y001929
X000000Y002205
X000276Y002205
X000551Y002205
X000827Y002205
X001102Y002205
X001378Y002205
X001654Y002205
X001929Y002205
X002205Y002205
X002480Y002205
X002756Y002205
X003032Y002205
X003307Y002205
X003583Y002205
X003858Y002205
X004134Y002205
X004410Y002205
X004685Y002205
X004961Y002205
X005236Y002205
X005512Y002205
X005788Y002205
X006063Y002205
X006339Y002205
X006614Y002205
X006890Y002205
X007166Y002205
X007441Y002205
X007717Y002205
X007992Y002205
X008268Y002205
X008544Y002205
X008819Y002205
X009095Y002205
X009370Y002205
X009646Y002205
X009922Y002205
X010197Y002205
X010473Y002205
X010748Y002205
X011024Y002205
X011300Y002205
X011575Y002205
X011851Y002205
X012126Y002205
X012402Y002205
X012678Y002205
X012953Y002205
X013229Y002205
X013504Y002205
X000000Y002480
X000276Y002480
X000551Y002480
X000827Y002480
X001102Y002480
X001378Y002480
X001654Y002480
X001929Y002480
X002205Y002480
X002480Y002480
X002756Y002480
X003032Y002480
X003307Y002480
X003583Y002480
X003858Y002480
X004134Y002480
X004410Y002480
X004685Y002480
X004961Y002480
X005236Y002480
X005512Y002480
X005788Y002480
X006063Y002480
X006339Y002480
X006614Y002480
X006890Y002480
X007166Y002480
X007441Y002480
X007717Y002480
X007992Y002480
X008268Y002480
X008544Y002480
X008819Y002480
X009095Y002480
X009370Y002480
X009646Y002480
X009922Y002480
X010197Y002480
X010473Y002480
X010748Y002480
X011024Y002480
X011300Y002480
X011575Y002480
X011851Y002480
X012126Y002480
X012402Y002480
X012678Y002480
X012953Y002480
X013229Y002480
X013504Y002480
X000000Y002756
X000276Y002756
X000551Y002756
X000827Y002756
X001102Y002756
X001378Y002756
X001654Y002756
X001929Y002756
X002205Y002756
X002480Y002756
X002756Y002756
X003032Y002756
X003307Y002756
X003583Y002756
X003858Y002756
X004134Y002756
X004410Y002756
X004685Y002756
X004961Y002756
X005236Y002756
X005512Y002756
X005788Y002756
X006063Y002756
X006339Y002756
X006614Y002756
X006890Y002756
X007166Y002756
X007441Y002756
X007717Y002756
X007992Y002756
X008268Y002756
X008544Y002756
X008819Y002756
X009095Y002756
X009370Y002756
X009646Y002756
X009922Y002756
X010197Y002756
X010473Y002756
X010748Y002756
X011024Y002756
X011300Y002756
X011575Y002756
X011851Y002756
X012126Y002756
X012402Y002756
X012678Y002756
X012953Y002756
X013229Y002756
X013504Y002756
X000000Y003032
X000276Y003032
X000551Y003032
X000827Y003032
X001102Y003032
X001378Y003032
X001654Y003032
X001929Y003032
X002205Y003032
X002480Y003032
X002756Y003032
X003032Y003032
X003307Y003032
X003583Y003032
X003858Y003032
X004134Y003032
X004410Y003032
X004685Y003032
X004961Y003032
X005236Y003032
X005512Y003032
X005788Y003032
X006063Y003032
X006339Y003032
X006614Y003032
X006890Y003032
X007166Y003032
X007441Y003032
X007717Y003032
X007992Y003032
X008268Y003032
X008544Y003032
X008819Y003032
X009095Y003032
X009370Y003032
X009646Y003032
X009922Y003032
X010197Y003032
X010473Y003032
X010748Y003032
X011024Y003032
X011300Y003032
X011575Y003032
X011851Y003032
X012126Y003032
X012402Y003032
X012678Y003032
X012953Y003032
X013229Y003032
X013504Y003032
X000000Y003307
X000276Y003307
X000551Y003307
X000827Y003307
X001102Y003307
X001378Y003307
X001654Y003307
X001929Y003307
X002205Y003307
X002480Y003307
X002756Y003307
X003032Y003307
X003307Y003307
X003583Y003307
X003858Y003307
X004134Y003307
X004410Y003307
X004685Y003307
X004961Y003307
X005236Y003307
X005512Y003307
X005788Y003307
X006063Y003307
X006339Y003307
X006614Y003307
X006890Y003307
X007166Y003307
X007441Y003307
X007717Y003307
X007992Y003307
X008268Y003307
X008544Y003307
X008819Y003307
X009095Y003307
X009370Y003307
X009646Y003307
X009922Y003307
X010197Y003307
X010473Y003307
X010748Y003307
X011024Y003307
X011300Y003307
X011575Y003307
X011851Y003307
X012126Y003307
X012402Y003307
X012678Y003307
X012953Y003307
X013229Y003307
X013504Y003307
X000000Y003583
X000276Y003583
X000551Y003583
X000827Y003583
X001102Y003583
X001378Y003583
X001654Y003583
X001929Y003583
X002205Y003583
X002480Y003583
X002756Y003583
X003032Y003583
X003307Y003583
X003583Y003583
X003858Y003583
X004134Y003583
X004410Y003583
X004685Y003583
X004961Y003583
X005236Y003583
X005512Y003583
X005788Y003583
X006063Y003583
X006339Y003583
X006614Y003583
X006890Y003583
X007166Y003583
X007441Y003583
X007717Y003583
X007992Y003583
X008268Y003583
X008544Y003583
X008819Y003583
X009095Y003583
X009370Y003583
X009646Y003583
X009922Y003583
X010197Y003583
X010473Y003583
X010748Y003583
X011024Y003583
X011300Y003583
X011575Y003583
X011851Y003583
X012126Y003583
X012402Y003583
X012678Y003583
X012953Y003583
X013229Y003583
X013504Y003583
X000000Y003858
X000276Y003858
X000551Y003858
X000827Y003858
X001102Y003858
X001378Y003858
X001654Y003858
X001929Y003858
X002205Y003858
X002480Y003858
X002756Y003858
X003032Y003858
X003307Y003858
X003583Y003858
X003858Y003858
X004134Y003858
X004410Y003858
X004685Y003858
X004961Y003858
X005236Y003858
X005512Y003858
X005788Y003858
X006063Y003858
X006339Y003858
X006614Y003858
X006890Y003858
X007166Y003858
X007441Y003858
X007717Y003858
X007992Y003858
X008268Y003858
X008544Y003858
X008819Y003858
X009095Y003858
X009370Y003858
X009646Y003858
X009922Y003858
X010197Y003858
X010473Y003858
X010748Y003858
X011024Y003858
X011300Y003858
X011575Y003858
X011851Y003858
X012126Y003858
X012402Y003858
X012678Y003858
X012953Y003858
X013229Y003858
X013504Y003858
X000000Y004134
X000276Y004134
X000551Y004134
X000827Y004134
X001102Y004134
X001378Y004134
X001654Y004134
X001929Y004134
X002205Y004134
X002480Y004134
X002756Y004134
X003032Y004134
X003307Y004134
X003583Y004134
X003858Y004134
X004134Y004134
X004410Y004134
X004685Y004134
X004961Y004134
X005236Y004134
X005512Y004134
X005788Y004134
X006063Y004134
X006339Y004134
X006614Y004134
X006890Y004134
X007166Y004134
X007441Y004134
X007717Y004134
X007992Y004134
X008268Y004134
X008544Y004134
X008819Y004134
X009095Y004134
X009370Y004134
X009646Y004134
X009922Y004134
X010197Y004134
X010473Y004134
X010748Y004134
X011024Y004134
X011300Y004134
X011575Y004134
X011851Y004134
X012126Y004134
X012402Y004134
X012678Y004134
X012953Y004134
X013229Y004134
X013504Y004134
X000000Y004410
X000276Y004410
X000551Y004410
X000827Y004410
X001102Y004410
X001378Y004410
X001654Y004410
X001929Y004410
X002205Y004410
X002480Y004410
X002756Y004410
X003032Y004410
X003307Y004410
X003583Y004410
X003858Y004410
X004134Y004410
X004410Y004410
X004685Y004410
X004961Y004410
X005236Y004410
X005512Y004410
X005788Y004410
X006063Y004410
X006339Y004410
X006614Y004410
X006890Y004410
X007166Y004410
X007441Y004410
X007717Y004410
X007992Y004410
X008268Y004410
X008544Y004410
X008819Y004410
X009095Y004410
X009370Y004410
X009646Y004410
X009922Y004410
X010197Y004410
X010473Y004410
X010748Y004410
X011024Y004410
X011300Y004410
X011575Y004410
X011851Y004410
X012126Y004410
X012402Y004410
X012678Y004410
X012953Y004410
X013229Y004410
X013504Y004410
X000000Y004685
X000276Y004685
X000551Y004685
X000827Y004685
X001102Y004685
X001378Y004685
X001654Y004685
X001929Y004685
X002205Y004685
X002480Y004685
X002756Y004685
X003032Y004685
X003307Y004685
X003583Y004685
X003858Y004685
X004134Y004685
X004410Y004685
X004685Y004685
X004961Y004685
X005236Y004685
X005512Y004685
X005788Y004685
X006063Y004685
X006339Y004685
X006614Y004685
X006890Y004685
X007166Y004685
X007441Y004685
X007717Y004685
X007992Y004685
X008268Y004685
X008544Y004685
X008819Y004685
X009095Y004685
X009370Y004685
X009646Y004685
X009922Y004685
X010197Y004685
X010473Y004685
X010748Y004685
X011024Y004685
X011300Y004685
X011575Y004685
X011851Y004685
X012126Y004685
X012402Y004685
X012678Y004685
X012953Y004685
X013229Y004685
X013504Y004685
X000000Y004961
X000276Y004961
X000551Y004961
X000827Y004961
X001102Y004961
X001378Y004961
X001654Y004961
X001929Y004961
X002205Y004961
X002480Y004961
X002756Y004961
X003032Y004961
X003307Y004961
X003583Y004961
X003858Y004961
X004134Y004961
X004410Y004961
X004685Y004961
X004961Y004961
X005236Y004961
X005512Y004961
X005788Y004961
X006063Y004961
X006339Y004961
X006614Y004961
X006890Y004961
X007166Y004961
X007441Y004961
X007717Y004961
X007992Y004961
X008268Y004961
X008544Y004961
X008819Y004961
X009095Y004961
X009370Y004961
X009646Y004961
X009922Y004961
X010197Y004961
X010473Y004961
X010748Y004961
X011024Y004961
X011300Y004961
X011575Y004961
X011851Y004961
X012126Y004961
X012402Y004961
X012678Y004961
X012953Y004961
X013229Y004961
X013504Y004961
X000000Y005236
X000276Y005236
X000551Y005236
X000827Y005236
X001102Y005236
X001378Y005236
X001654Y005236
X001929Y005236
X002205Y005236
X002480Y005236
X002756Y005236
X003032Y005236
X003307Y005236
X003583Y005236
X003858Y005236
X004134Y005236
X004410Y005236
X004685Y005236
X004961Y005236
X005236Y005236
X005512Y005236
X005788Y005236
X006063Y005236
X006339Y005236
X006614Y005236
X006890Y005236
X007166Y005236
X007441Y005236
X007717Y005236
X007992Y005236
X008268Y005236
X008544Y005236
X008819Y005236
X009095Y005236
X009370Y005236
X009646Y005236
X009922Y005236
X010197Y005236
X010473Y005236
X010748Y005236
X011024Y005236
X011300Y005236
X011575Y005236
X011851Y005236
X012126Y005236
X012402Y005236
X012678Y005236
X012953Y005236
X013229Y005236
X013504Y005236
X000000Y005512
X000276Y005512
X000551Y005512
X000827Y005512
X001102Y005512
X001378Y005512
X001654Y005512
X001929Y005512
X002205Y005512
X002480Y005512
X002756Y005512
X003032Y005512
X003307Y005512
X003583Y005512
X003858Y005512
X004134Y005512
X004410Y005512
X004685Y005512
X004961Y005512
X005236Y005512
X005512Y005512
X005788Y005512
X006063Y005512
X006339Y005512
X006614Y005512
X006890Y005512
X007166Y005512
X007441Y005512
X007717Y005512
X007992Y005512
X008268Y005512
X008544Y005512
X008819Y005512
X009095Y005512
X009370Y005512
X009646Y005512
X009922Y005512
X010197Y005512
X010473Y005512
X010748Y005512
X011024Y005512
X011300Y005512
X011575Y005512
X011851Y005512
X012126Y005512
X012402Y005512
X012678Y005512
X012953Y005512
X013229Y005512
X013504Y005512
X000000Y005788
X000276Y005788
X000551Y005788
X000827Y005788
X001102Y005788
X001378Y005788
X001654Y005788
X001929Y005788
X002205Y005788
X002480Y005788
X002756Y005788
X003032Y005788
X003307Y005788
X003583Y005788
X003858Y005788
X004134Y005788
X004410Y005788
X004685Y005788
X004961Y005788
X005236Y005788
X005512Y005788
X005788Y005788
X006063Y005788
X006339Y005788
X006614Y005788
X006890Y005788
X007166Y005788
X007441Y005788
X007717Y005788
X007992Y005788
X008268Y005788
X008544Y005788
X008819Y005788
X009095Y005788
X009370Y005788
X009646Y005788
X009922Y005788
X010197Y005788
X010473Y005788
X010748Y005788
X011024Y005788
X011300Y005788
X011575Y005788
X011851Y005788
X012126Y005788
X012402Y005788
X012678Y005788
X012953Y005788
X013229Y005788
X013504Y005788
X000000Y006063
X000276Y006063
X000551Y006063
X000827Y006063
X001102Y006063
X001378Y006063
X001654Y006063
X001929Y006063
X002205Y006063
X002480Y006063
X002756Y006063
X003032Y006063
X003307Y006063
X003583Y006063
X003858Y006063
X004134Y006063
X004410Y006063
X004685Y006063
X004961Y006063
X005236Y006063
X005512Y006063
X005788Y006063
X006063Y006063
X006339Y006063
X006614Y006063
X006890Y006063
X007166Y006063
X007441Y006063
X007717Y006063
X007992Y006063
X008268Y006063
X008544Y006063
X008819Y006063
X009095Y006063
X009370Y006063
X009646Y006063
X009922Y006063
X010197Y006063
X010473Y006063
X010748Y006063
X011024Y006063
X011300Y006063
X011575Y006063
X011851Y006063
X012126Y006063
X012402Y006063
X012678Y006063
X012953Y006063
X013229Y006063
X013504Y006063
X000000Y006339
X000276Y006339
X000551Y006339
X000827Y006339
X001102Y006339
X001378Y006339
X001654Y006339
X001929Y006339
X002205Y006339
X002480Y006339
X002756Y006339
X003032Y006339
X003307Y006339
X003583Y006339
X003858Y006339
X004134Y006339
X004410Y006339
X004685Y006339
X004961Y006339
X005236Y006339
X005512Y006339
X005788Y006339
X006063Y006339
X006339Y006339
X006614Y006339
X006890Y006339
X007166Y006339
X007441Y006339
X007717Y006339
X007992Y006339
X008268Y006339
X008544Y006339
X008819Y006339
X009095Y006339
X009370Y006339
X009646Y006339
X009922Y006339
X010197Y006339
X010473Y006339
X010748Y006339
X011024Y006339
X011300Y006339
X011575Y006339
X011851Y006339
X012126Y006339
X012402Y006339
X012678Y006339
X012953Y006339
X013229Y006339
X013504Y006339
X000000Y006614
X000276Y006614
X000551Y006614
X000827Y006614
X001102Y006614
X001378Y006614
X001654Y006614
X001929Y006614
X002205Y006614
X002480Y006614
X002756Y006614
X003032Y006614
X003307Y006614
X003583Y006614
X003858Y006614
X004134Y006614
X004410Y006614
X004685Y006614
X004961Y006614
X005236Y006614
X005512Y006614
X005788Y006614
X006063Y006614
X006339Y006614
X006614Y006614
X006890Y006614
X007166Y006614
X007441Y006614
X007717Y006614
X007992Y006614
X008268Y006614
X008544Y006614
X008819Y006614
X009095Y006614
X009370Y006614
X009646Y006614
X009922Y006614
X010197Y006614
X010473Y006614
X010748Y006614
X011024Y006614
X011300Y006614
X011575Y006614
X011851Y006614
X012126Y006614
X012402Y006614
X012678Y006614
X012953Y006614
X013229Y006614
X013504Y006614
T13
X-02950Y-00450
M30

